solid ascii
  facet normal 0.000000e+000 -1.401385e-001 9.901319e-001
    outer loop
      vertex   2.900000e+001 1.480000e+002 1.123390e+002
      vertex   2.900000e+001 1.484972e+002 1.124093e+002
      vertex   2.700000e+001 1.480000e+002 1.123390e+002
    endloop
  endfacet
  facet normal 6.938894e-018 -1.359204e-001 9.603294e-001
    outer loop
      vertex   2.700000e+001 1.480000e+002 1.123390e+002
      vertex   2.900000e+001 1.484972e+002 1.124093e+002
      vertex   2.700000e+001 1.484972e+002 1.124093e+002
    endloop
  endfacet
  facet normal 0.000000e+000 -2.441544e-002 2.422822e-001
    outer loop
      vertex   2.700000e+001 1.484972e+002 1.124093e+002
      vertex   2.900000e+001 1.484972e+002 1.124093e+002
      vertex   2.900000e+001 1.489968e+002 1.124597e+002
    endloop
  endfacet
  facet normal 0.000000e+000 -9.724677e-002 9.650110e-001
    outer loop
      vertex   2.700000e+001 1.484972e+002 1.124093e+002
      vertex   2.900000e+001 1.489968e+002 1.124597e+002
      vertex   2.700000e+001 1.489968e+002 1.124597e+002
    endloop
  endfacet
  facet normal 0.000000e+000 -1.466261e-002 2.430597e-001
    outer loop
      vertex   2.700000e+001 1.489968e+002 1.124597e+002
      vertex   2.900000e+001 1.489968e+002 1.124597e+002
      vertex   2.900000e+001 1.494980e+002 1.124899e+002
    endloop
  endfacet
  facet normal -1.734723e-018 -5.840322e-002 9.681405e-001
    outer loop
      vertex   2.700000e+001 1.489968e+002 1.124597e+002
      vertex   2.900000e+001 1.494980e+002 1.124899e+002
      vertex   2.700000e+001 1.494980e+002 1.124899e+002
    endloop
  endfacet
  facet normal 0.000000e+000 -2.008652e-002 9.997982e-001
    outer loop
      vertex   2.700000e+001 1.494980e+002 1.124899e+002
      vertex   2.900000e+001 1.494980e+002 1.124899e+002
      vertex   2.700000e+001 1.500000e+002 1.125000e+002
    endloop
  endfacet
  facet normal 0.000000e+000 -4.891229e-003 2.434589e-001
    outer loop
      vertex   2.700000e+001 1.500000e+002 1.125000e+002
      vertex   2.900000e+001 1.494980e+002 1.124899e+002
      vertex   2.900000e+001 1.500000e+002 1.125000e+002
    endloop
  endfacet
  facet normal -0.000000e+000 2.008652e-002 9.997982e-001
    outer loop
      vertex   2.700000e+001 1.500000e+002 1.125000e+002
      vertex   2.900000e+001 1.500000e+002 1.125000e+002
      vertex   2.700000e+001 1.505020e+002 1.124899e+002
    endloop
  endfacet
  facet normal -0.000000e+000 4.891229e-003 2.434589e-001
    outer loop
      vertex   2.700000e+001 1.505020e+002 1.124899e+002
      vertex   2.900000e+001 1.500000e+002 1.125000e+002
      vertex   2.900000e+001 1.505020e+002 1.124899e+002
    endloop
  endfacet
  facet normal -0.000000e+000 1.466261e-002 2.430597e-001
    outer loop
      vertex   2.700000e+001 1.505020e+002 1.124899e+002
      vertex   2.900000e+001 1.505020e+002 1.124899e+002
      vertex   2.900000e+001 1.510032e+002 1.124597e+002
    endloop
  endfacet
  facet normal 1.734723e-018 5.840322e-002 9.681405e-001
    outer loop
      vertex   2.700000e+001 1.505020e+002 1.124899e+002
      vertex   2.900000e+001 1.510032e+002 1.124597e+002
      vertex   2.700000e+001 1.510032e+002 1.124597e+002
    endloop
  endfacet
  facet normal -0.000000e+000 2.441544e-002 2.422822e-001
    outer loop
      vertex   2.700000e+001 1.510032e+002 1.124597e+002
      vertex   2.900000e+001 1.510032e+002 1.124597e+002
      vertex   2.900000e+001 1.515028e+002 1.124093e+002
    endloop
  endfacet
  facet normal 0.000000e+000 9.724677e-002 9.650110e-001
    outer loop
      vertex   2.700000e+001 1.510032e+002 1.124597e+002
      vertex   2.900000e+001 1.515028e+002 1.124093e+002
      vertex   2.700000e+001 1.515028e+002 1.124093e+002
    endloop
  endfacet
  facet normal -0.000000e+000 3.412396e-002 2.410988e-001
    outer loop
      vertex   2.700000e+001 1.515028e+002 1.124093e+002
      vertex   2.900000e+001 1.515028e+002 1.124093e+002
      vertex   2.900000e+001 1.520000e+002 1.123390e+002
    endloop
  endfacet
  facet normal -6.938894e-018 1.359204e-001 9.603294e-001
    outer loop
      vertex   2.700000e+001 1.515028e+002 1.124093e+002
      vertex   2.900000e+001 1.520000e+002 1.123390e+002
      vertex   2.700000e+001 1.520000e+002 1.123390e+002
    endloop
  endfacet
  facet normal 0.000000e+000 -1.000000e+000 0.000000e+000
    outer loop
      vertex   2.900000e+001 1.480000e+002 1.050000e+002
      vertex   2.900000e+001 1.480000e+002 1.123390e+002
      vertex   2.700000e+001 1.480000e+002 1.050000e+002
    endloop
  endfacet
  facet normal 0.000000e+000 -2.629294e-001 0.000000e+000
    outer loop
      vertex   2.700000e+001 1.480000e+002 1.050000e+002
      vertex   2.900000e+001 1.480000e+002 1.123390e+002
      vertex   2.700000e+001 1.480000e+002 1.123390e+002
    endloop
  endfacet
  facet normal -0.000000e+000 -0.000000e+000 -1.000000e+000
    outer loop
      vertex   2.900000e+001 1.520000e+002 1.050000e+002
      vertex   2.900000e+001 1.480000e+002 1.050000e+002
      vertex   2.700000e+001 1.520000e+002 1.050000e+002
    endloop
  endfacet
  facet normal 0.000000e+000 0.000000e+000 -4.472136e-001
    outer loop
      vertex   2.700000e+001 1.520000e+002 1.050000e+002
      vertex   2.900000e+001 1.480000e+002 1.050000e+002
      vertex   2.700000e+001 1.480000e+002 1.050000e+002
    endloop
  endfacet
  facet normal 0.000000e+000 1.000000e+000 0.000000e+000
    outer loop
      vertex   2.900000e+001 1.520000e+002 1.123390e+002
      vertex   2.900000e+001 1.520000e+002 1.050000e+002
      vertex   2.700000e+001 1.520000e+002 1.123390e+002
    endloop
  endfacet
  facet normal 0.000000e+000 2.629294e-001 0.000000e+000
    outer loop
      vertex   2.700000e+001 1.520000e+002 1.123390e+002
      vertex   2.900000e+001 1.520000e+002 1.050000e+002
      vertex   2.700000e+001 1.520000e+002 1.050000e+002
    endloop
  endfacet
  facet normal -9.901319e-001 -0.000000e+000 -0.000000e+000
    outer loop
      vertex   2.700000e+001 1.520000e+002 1.123390e+002
      vertex   2.700000e+001 1.520000e+002 1.050000e+002
      vertex   2.700000e+001 1.515028e+002 1.124093e+002
    endloop
  endfacet
  facet normal -9.860159e-001 -0.000000e+000 -0.000000e+000
    outer loop
      vertex   2.700000e+001 1.515028e+002 1.124093e+002
      vertex   2.700000e+001 1.520000e+002 1.050000e+002
      vertex   2.700000e+001 1.510032e+002 1.124597e+002
    endloop
  endfacet
  facet normal -9.814168e-001 -0.000000e+000 -0.000000e+000
    outer loop
      vertex   2.700000e+001 1.510032e+002 1.124597e+002
      vertex   2.700000e+001 1.520000e+002 1.050000e+002
      vertex   2.700000e+001 1.505020e+002 1.124899e+002
    endloop
  endfacet
  facet normal -9.764439e-001 -0.000000e+000 -0.000000e+000
    outer loop
      vertex   2.700000e+001 1.505020e+002 1.124899e+002
      vertex   2.700000e+001 1.520000e+002 1.050000e+002
      vertex   2.700000e+001 1.500000e+002 1.125000e+002
    endloop
  endfacet
  facet normal -4.979253e-001 0.000000e+000 -0.000000e+000
    outer loop
      vertex   2.700000e+001 1.500000e+002 1.125000e+002
      vertex   2.700000e+001 1.520000e+002 1.050000e+002
      vertex   2.700000e+001 1.480000e+002 1.050000e+002
    endloop
  endfacet
  facet normal -9.608644e-001 0.000000e+000 0.000000e+000
    outer loop
      vertex   2.700000e+001 1.500000e+002 1.125000e+002
      vertex   2.700000e+001 1.480000e+002 1.050000e+002
      vertex   2.700000e+001 1.494980e+002 1.124899e+002
    endloop
  endfacet
  facet normal -9.669924e-001 0.000000e+000 0.000000e+000
    outer loop
      vertex   2.700000e+001 1.494980e+002 1.124899e+002
      vertex   2.700000e+001 1.480000e+002 1.050000e+002
      vertex   2.700000e+001 1.489968e+002 1.124597e+002
    endloop
  endfacet
  facet normal -9.729164e-001 0.000000e+000 0.000000e+000
    outer loop
      vertex   2.700000e+001 1.489968e+002 1.124597e+002
      vertex   2.700000e+001 1.480000e+002 1.050000e+002
      vertex   2.700000e+001 1.484972e+002 1.124093e+002
    endloop
  endfacet
  facet normal -9.785283e-001 0.000000e+000 0.000000e+000
    outer loop
      vertex   2.700000e+001 1.484972e+002 1.124093e+002
      vertex   2.700000e+001 1.480000e+002 1.050000e+002
      vertex   2.700000e+001 1.480000e+002 1.123390e+002
    endloop
  endfacet
  facet normal 9.901319e-001 0.000000e+000 0.000000e+000
    outer loop
      vertex   2.900000e+001 1.520000e+002 1.123390e+002
      vertex   2.900000e+001 1.515028e+002 1.124093e+002
      vertex   2.900000e+001 1.520000e+002 1.050000e+002
    endloop
  endfacet
  facet normal 6.578702e-002 0.000000e+000 0.000000e+000
    outer loop
      vertex   2.900000e+001 1.520000e+002 1.050000e+002
      vertex   2.900000e+001 1.515028e+002 1.124093e+002
      vertex   2.900000e+001 1.510032e+002 1.124597e+002
    endloop
  endfacet
  facet normal 6.451559e-002 0.000000e+000 0.000000e+000
    outer loop
      vertex   2.900000e+001 1.520000e+002 1.050000e+002
      vertex   2.900000e+001 1.510032e+002 1.124597e+002
      vertex   2.900000e+001 1.505020e+002 1.124899e+002
    endloop
  endfacet
  facet normal 9.764439e-001 0.000000e+000 0.000000e+000
    outer loop
      vertex   2.900000e+001 1.505020e+002 1.124899e+002
      vertex   2.900000e+001 1.500000e+002 1.125000e+002
      vertex   2.900000e+001 1.520000e+002 1.050000e+002
    endloop
  endfacet
  facet normal 9.662349e-001 0.000000e+000 0.000000e+000
    outer loop
      vertex   2.900000e+001 1.520000e+002 1.050000e+002
      vertex   2.900000e+001 1.500000e+002 1.125000e+002
      vertex   2.900000e+001 1.480000e+002 1.050000e+002
    endloop
  endfacet
  facet normal 6.316632e-002 0.000000e+000 0.000000e+000
    outer loop
      vertex   2.900000e+001 1.480000e+002 1.050000e+002
      vertex   2.900000e+001 1.500000e+002 1.125000e+002
      vertex   2.900000e+001 1.494980e+002 1.124899e+002
    endloop
  endfacet
  facet normal 6.451559e-002 0.000000e+000 0.000000e+000
    outer loop
      vertex   2.900000e+001 1.480000e+002 1.050000e+002
      vertex   2.900000e+001 1.494980e+002 1.124899e+002
      vertex   2.900000e+001 1.489968e+002 1.124597e+002
    endloop
  endfacet
  facet normal 9.729164e-001 0.000000e+000 0.000000e+000
    outer loop
      vertex   2.900000e+001 1.489968e+002 1.124597e+002
      vertex   2.900000e+001 1.484972e+002 1.124093e+002
      vertex   2.900000e+001 1.480000e+002 1.050000e+002
    endloop
  endfacet
  facet normal 6.694887e-002 0.000000e+000 0.000000e+000
    outer loop
      vertex   2.900000e+001 1.480000e+002 1.050000e+002
      vertex   2.900000e+001 1.484972e+002 1.124093e+002
      vertex   2.900000e+001 1.480000e+002 1.123390e+002
    endloop
  endfacet
endsolid
solid ascii
  facet normal 0.000000e+000 1.000000e+000 0.000000e+000
    outer loop
      vertex   2.900000e+001 1.520000e+002 6.689359e+001
      vertex   2.900000e+001 1.520000e+002 6.614359e+001
      vertex   2.720000e+001 1.520000e+002 6.689359e+001
    endloop
  endfacet
  facet normal 0.000000e+000 9.910103e-001 0.000000e+000
    outer loop
      vertex   2.720000e+001 1.520000e+002 6.689359e+001
      vertex   2.900000e+001 1.520000e+002 6.614359e+001
      vertex   2.700000e+001 1.520000e+002 6.614359e+001
    endloop
  endfacet
  facet normal 0.000000e+000 4.887716e-002 0.000000e+000
    outer loop
      vertex   2.720000e+001 1.520000e+002 6.689359e+001
      vertex   2.700000e+001 1.520000e+002 6.614359e+001
      vertex   2.696075e+001 1.520000e+002 6.614540e+001
    endloop
  endfacet
  facet normal 0.000000e+000 9.852368e-001 -0.000000e+000
    outer loop
      vertex   2.696075e+001 1.520000e+002 6.614540e+001
      vertex   2.692159e+001 1.520000e+002 6.615082e+001
      vertex   2.720000e+001 1.520000e+002 6.689359e+001
    endloop
  endfacet
  facet normal 0.000000e+000 9.983937e-002 0.000000e+000
    outer loop
      vertex   2.720000e+001 1.520000e+002 6.689359e+001
      vertex   2.692159e+001 1.520000e+002 6.615082e+001
      vertex   2.684393e+001 1.520000e+002 6.617242e+001
    endloop
  endfacet
  facet normal 0.000000e+000 1.038111e-001 0.000000e+000
    outer loop
      vertex   2.720000e+001 1.520000e+002 6.689359e+001
      vertex   2.684393e+001 1.520000e+002 6.617242e+001
      vertex   2.676777e+001 1.520000e+002 6.620818e+001
    endloop
  endfacet
  facet normal 0.000000e+000 9.995999e-001 -0.000000e+000
    outer loop
      vertex   2.676777e+001 1.520000e+002 6.620818e+001
      vertex   2.669385e+001 1.520000e+002 6.625777e+001
      vertex   2.720000e+001 1.520000e+002 6.689359e+001
    endloop
  endfacet
  facet normal 0.000000e+000 1.164834e-001 0.000000e+000
    outer loop
      vertex   2.720000e+001 1.520000e+002 6.689359e+001
      vertex   2.669385e+001 1.520000e+002 6.625777e+001
      vertex   2.662288e+001 1.520000e+002 6.632071e+001
    endloop
  endfacet
  facet normal 0.000000e+000 1.242728e-001 0.000000e+000
    outer loop
      vertex   2.720000e+001 1.520000e+002 6.689359e+001
      vertex   2.662288e+001 1.520000e+002 6.632071e+001
      vertex   2.655554e+001 1.520000e+002 6.639639e+001
    endloop
  endfacet
  facet normal 0.000000e+000 9.994338e-001 -0.000000e+000
    outer loop
      vertex   2.655554e+001 1.520000e+002 6.639639e+001
      vertex   2.649249e+001 1.520000e+002 6.648408e+001
      vertex   2.720000e+001 1.520000e+002 6.689359e+001
    endloop
  endfacet
  facet normal 0.000000e+000 1.388056e-001 0.000000e+000
    outer loop
      vertex   2.720000e+001 1.520000e+002 6.689359e+001
      vertex   2.649249e+001 1.520000e+002 6.648408e+001
      vertex   2.643431e+001 1.520000e+002 6.658293e+001
    endloop
  endfacet
  facet normal 0.000000e+000 9.980243e-001 0.000000e+000
    outer loop
      vertex   2.720000e+001 1.520000e+002 6.689359e+001
      vertex   2.643431e+001 1.520000e+002 6.658293e+001
      vertex   2.638159e+001 1.520000e+002 6.859518e+001
    endloop
  endfacet
  facet normal 0.000000e+000 2.619196e-002 0.000000e+000
    outer loop
      vertex   2.638159e+001 1.520000e+002 6.859518e+001
      vertex   2.643431e+001 1.520000e+002 6.658293e+001
      vertex   2.638159e+001 1.520000e+002 6.669200e+001
    endloop
  endfacet
  facet normal 0.000000e+000 3.678161e-001 0.000000e+000
    outer loop
      vertex   2.638159e+001 1.520000e+002 6.859518e+001
      vertex   2.638159e+001 1.520000e+002 6.669200e+001
      vertex   2.633483e+001 1.520000e+002 6.847695e+001
    endloop
  endfacet
  facet normal 0.000000e+000 2.619134e-002 0.000000e+000
    outer loop
      vertex   2.633483e+001 1.520000e+002 6.847695e+001
      vertex   2.638159e+001 1.520000e+002 6.669200e+001
      vertex   2.633483e+001 1.520000e+002 6.681024e+001
    endloop
  endfacet
  facet normal 0.000000e+000 3.044755e-001 0.000000e+000
    outer loop
      vertex   2.633483e+001 1.520000e+002 6.847695e+001
      vertex   2.633483e+001 1.520000e+002 6.681024e+001
      vertex   2.629446e+001 1.520000e+002 6.835069e+001
    endloop
  endfacet
  facet normal 0.000000e+000 2.619217e-002 0.000000e+000
    outer loop
      vertex   2.629446e+001 1.520000e+002 6.835069e+001
      vertex   2.633483e+001 1.520000e+002 6.681024e+001
      vertex   2.629446e+001 1.520000e+002 6.693650e+001
    endloop
  endfacet
  facet normal 0.000000e+000 2.446019e-001 0.000000e+000
    outer loop
      vertex   2.629446e+001 1.520000e+002 6.835069e+001
      vertex   2.629446e+001 1.520000e+002 6.693650e+001
      vertex   2.626090e+001 1.520000e+002 6.821762e+001
    endloop
  endfacet
  facet normal 0.000000e+000 2.619263e-002 0.000000e+000
    outer loop
      vertex   2.626090e+001 1.520000e+002 6.821762e+001
      vertex   2.629446e+001 1.520000e+002 6.693650e+001
      vertex   2.626090e+001 1.520000e+002 6.706956e+001
    endloop
  endfacet
  facet normal 0.000000e+000 1.874444e-001 0.000000e+000
    outer loop
      vertex   2.626090e+001 1.520000e+002 6.821762e+001
      vertex   2.626090e+001 1.520000e+002 6.706956e+001
      vertex   2.623445e+001 1.520000e+002 6.807902e+001
    endloop
  endfacet
  facet normal 0.000000e+000 2.619254e-002 0.000000e+000
    outer loop
      vertex   2.623445e+001 1.520000e+002 6.807902e+001
      vertex   2.626090e+001 1.520000e+002 6.706956e+001
      vertex   2.623445e+001 1.520000e+002 6.720817e+001
    endloop
  endfacet
  facet normal 0.000000e+000 1.324126e-001 0.000000e+000
    outer loop
      vertex   2.623445e+001 1.520000e+002 6.807902e+001
      vertex   2.623445e+001 1.520000e+002 6.720817e+001
      vertex   2.621537e+001 1.520000e+002 6.793623e+001
    endloop
  endfacet
  facet normal 0.000000e+000 2.619139e-002 0.000000e+000
    outer loop
      vertex   2.621537e+001 1.520000e+002 6.793623e+001
      vertex   2.623445e+001 1.520000e+002 6.720817e+001
      vertex   2.621537e+001 1.520000e+002 6.735096e+001
    endloop
  endfacet
  facet normal 0.000000e+000 7.886027e-002 0.000000e+000
    outer loop
      vertex   2.621537e+001 1.520000e+002 6.793623e+001
      vertex   2.621537e+001 1.520000e+002 6.735096e+001
      vertex   2.620385e+001 1.520000e+002 6.779062e+001
    endloop
  endfacet
  facet normal 0.000000e+000 2.618967e-002 0.000000e+000
    outer loop
      vertex   2.620385e+001 1.520000e+002 6.779062e+001
      vertex   2.621537e+001 1.520000e+002 6.735096e+001
      vertex   2.620385e+001 1.520000e+002 6.749657e+001
    endloop
  endfacet
  facet normal 0.000000e+000 2.619619e-002 0.000000e+000
    outer loop
      vertex   2.620385e+001 1.520000e+002 6.779062e+001
      vertex   2.620385e+001 1.520000e+002 6.749657e+001
      vertex   2.620000e+001 1.520000e+002 6.764359e+001
    endloop
  endfacet
  facet normal -0.000000e+000 7.824400e-001 0.000000e+000
    outer loop
      vertex   2.638159e+001 1.520000e+002 6.859518e+001
      vertex   2.643431e+001 1.520000e+002 6.870425e+001
      vertex   2.720000e+001 1.520000e+002 6.689359e+001
    endloop
  endfacet
  facet normal 0.000000e+000 4.521700e-002 0.000000e+000
    outer loop
      vertex   2.720000e+001 1.520000e+002 6.689359e+001
      vertex   2.643431e+001 1.520000e+002 6.870425e+001
      vertex   2.649249e+001 1.520000e+002 6.880311e+001
    endloop
  endfacet
  facet normal 0.000000e+000 4.269404e-002 0.000000e+000
    outer loop
      vertex   2.720000e+001 1.520000e+002 6.689359e+001
      vertex   2.649249e+001 1.520000e+002 6.880311e+001
      vertex   2.655554e+001 1.520000e+002 6.889080e+001
    endloop
  endfacet
  facet normal -0.000000e+000 8.620499e-001 0.000000e+000
    outer loop
      vertex   2.655554e+001 1.520000e+002 6.889080e+001
      vertex   2.662288e+001 1.520000e+002 6.896648e+001
      vertex   2.720000e+001 1.520000e+002 6.689359e+001
    endloop
  endfacet
  facet normal 0.000000e+000 3.883877e-002 0.000000e+000
    outer loop
      vertex   2.720000e+001 1.520000e+002 6.689359e+001
      vertex   2.662288e+001 1.520000e+002 6.896648e+001
      vertex   2.669385e+001 1.520000e+002 6.902941e+001
    endloop
  endfacet
  facet normal 0.000000e+000 3.742021e-002 0.000000e+000
    outer loop
      vertex   2.720000e+001 1.520000e+002 6.689359e+001
      vertex   2.669385e+001 1.520000e+002 6.902941e+001
      vertex   2.676777e+001 1.520000e+002 6.907900e+001
    endloop
  endfacet
  facet normal -0.000000e+000 9.704226e-001 0.000000e+000
    outer loop
      vertex   2.676777e+001 1.520000e+002 6.907900e+001
      vertex   2.684393e+001 1.520000e+002 6.911477e+001
      vertex   2.720000e+001 1.520000e+002 6.689359e+001
    endloop
  endfacet
  facet normal 0.000000e+000 3.544236e-002 0.000000e+000
    outer loop
      vertex   2.720000e+001 1.520000e+002 6.689359e+001
      vertex   2.684393e+001 1.520000e+002 6.911477e+001
      vertex   2.692159e+001 1.520000e+002 6.913637e+001
    endloop
  endfacet
  facet normal 0.000000e+000 1.748376e-002 0.000000e+000
    outer loop
      vertex   2.720000e+001 1.520000e+002 6.689359e+001
      vertex   2.692159e+001 1.520000e+002 6.913637e+001
      vertex   2.696075e+001 1.520000e+002 6.914178e+001
    endloop
  endfacet
  facet normal -0.000000e+000 9.982011e-001 0.000000e+000
    outer loop
      vertex   2.696075e+001 1.520000e+002 6.914178e+001
      vertex   2.700000e+001 1.520000e+002 6.914359e+001
      vertex   2.720000e+001 1.520000e+002 6.689359e+001
    endloop
  endfacet
  facet normal 0.000000e+000 6.913797e-001 -0.000000e+000
    outer loop
      vertex   2.720000e+001 1.520000e+002 6.689359e+001
      vertex   2.700000e+001 1.520000e+002 6.914359e+001
      vertex   2.900000e+001 1.520000e+002 6.914359e+001
    endloop
  endfacet
  facet normal 0.000000e+000 1.000000e+000 -0.000000e+000
    outer loop
      vertex   2.900000e+001 1.520000e+002 6.914359e+001
      vertex   2.700000e+001 1.520000e+002 6.914359e+001
      vertex   2.900000e+001 1.520000e+002 7.300000e+001
    endloop
  endfacet
  facet normal 0.000000e+000 8.877186e-001 0.000000e+000
    outer loop
      vertex   2.900000e+001 1.520000e+002 7.300000e+001
      vertex   2.700000e+001 1.520000e+002 6.914359e+001
      vertex   2.700000e+001 1.520000e+002 7.300000e+001
    endloop
  endfacet
  facet normal 0.000000e+000 0.000000e+000 1.000000e+000
    outer loop
      vertex   2.900000e+001 1.520000e+002 6.689359e+001
      vertex   2.720000e+001 1.520000e+002 6.689359e+001
      vertex   2.900000e+001 1.480000e+002 6.689359e+001
    endloop
  endfacet
  facet normal 0.000000e+000 0.000000e+000 9.119216e-001
    outer loop
      vertex   2.900000e+001 1.480000e+002 6.689359e+001
      vertex   2.720000e+001 1.520000e+002 6.689359e+001
      vertex   2.720000e+001 1.480000e+002 6.689359e+001
    endloop
  endfacet
  facet normal 7.808689e-001 0.000000e+000 -6.246949e-001
    outer loop
      vertex   2.720000e+001 1.520000e+002 6.689359e+001
      vertex   2.900000e+001 1.520000e+002 6.914359e+001
      vertex   2.720000e+001 1.480000e+002 6.689359e+001
    endloop
  endfacet
  facet normal 6.335964e-001 0.000000e+000 -5.068769e-001
    outer loop
      vertex   2.720000e+001 1.480000e+002 6.689359e+001
      vertex   2.900000e+001 1.520000e+002 6.914359e+001
      vertex   2.900000e+001 1.480000e+002 6.914359e+001
    endloop
  endfacet
  facet normal -0.000000e+000 -1.000000e+000 -0.000000e+000
    outer loop
      vertex   2.900000e+001 1.480000e+002 6.689359e+001
      vertex   2.720000e+001 1.480000e+002 6.689359e+001
      vertex   2.900000e+001 1.480000e+002 6.614359e+001
    endloop
  endfacet
  facet normal 0.000000e+000 -3.846155e-001 0.000000e+000
    outer loop
      vertex   2.900000e+001 1.480000e+002 6.614359e+001
      vertex   2.720000e+001 1.480000e+002 6.689359e+001
      vertex   2.700000e+001 1.480000e+002 6.614359e+001
    endloop
  endfacet
  facet normal 0.000000e+000 -9.770676e-001 0.000000e+000
    outer loop
      vertex   2.700000e+001 1.480000e+002 6.614359e+001
      vertex   2.720000e+001 1.480000e+002 6.689359e+001
      vertex   2.696075e+001 1.480000e+002 6.614540e+001
    endloop
  endfacet
  facet normal 0.000000e+000 -9.852368e-001 0.000000e+000
    outer loop
      vertex   2.696075e+001 1.480000e+002 6.614540e+001
      vertex   2.720000e+001 1.480000e+002 6.689359e+001
      vertex   2.692159e+001 1.480000e+002 6.615082e+001
    endloop
  endfacet
  facet normal 0.000000e+000 -9.961870e-001 0.000000e+000
    outer loop
      vertex   2.692159e+001 1.480000e+002 6.615082e+001
      vertex   2.720000e+001 1.480000e+002 6.689359e+001
      vertex   2.684393e+001 1.480000e+002 6.617242e+001
    endloop
  endfacet
  facet normal 0.000000e+000 -9.998090e-001 0.000000e+000
    outer loop
      vertex   2.684393e+001 1.480000e+002 6.617242e+001
      vertex   2.720000e+001 1.480000e+002 6.689359e+001
      vertex   2.676777e+001 1.480000e+002 6.620818e+001
    endloop
  endfacet
  facet normal 0.000000e+000 -9.995999e-001 0.000000e+000
    outer loop
      vertex   2.676777e+001 1.480000e+002 6.620818e+001
      vertex   2.720000e+001 1.480000e+002 6.689359e+001
      vertex   2.669385e+001 1.480000e+002 6.625777e+001
    endloop
  endfacet
  facet normal 0.000000e+000 -9.985890e-001 0.000000e+000
    outer loop
      vertex   2.669385e+001 1.480000e+002 6.625777e+001
      vertex   2.720000e+001 1.480000e+002 6.689359e+001
      vertex   2.662288e+001 1.480000e+002 6.632071e+001
    endloop
  endfacet
  facet normal 0.000000e+000 -9.985099e-001 0.000000e+000
    outer loop
      vertex   2.662288e+001 1.480000e+002 6.632071e+001
      vertex   2.720000e+001 1.480000e+002 6.689359e+001
      vertex   2.655554e+001 1.480000e+002 6.639639e+001
    endloop
  endfacet
  facet normal 0.000000e+000 -9.994338e-001 0.000000e+000
    outer loop
      vertex   2.655554e+001 1.480000e+002 6.639639e+001
      vertex   2.720000e+001 1.480000e+002 6.689359e+001
      vertex   2.649249e+001 1.480000e+002 6.648408e+001
    endloop
  endfacet
  facet normal 0.000000e+000 -9.999741e-001 0.000000e+000
    outer loop
      vertex   2.649249e+001 1.480000e+002 6.648408e+001
      vertex   2.720000e+001 1.480000e+002 6.689359e+001
      vertex   2.643431e+001 1.480000e+002 6.658293e+001
    endloop
  endfacet
  facet normal 0.000000e+000 -9.266347e-001 0.000000e+000
    outer loop
      vertex   2.643431e+001 1.480000e+002 6.658293e+001
      vertex   2.720000e+001 1.480000e+002 6.689359e+001
      vertex   2.643431e+001 1.480000e+002 6.870425e+001
    endloop
  endfacet
  facet normal 0.000000e+000 -4.352078e-001 0.000000e+000
    outer loop
      vertex   2.643431e+001 1.480000e+002 6.658293e+001
      vertex   2.643431e+001 1.480000e+002 6.870425e+001
      vertex   2.638159e+001 1.480000e+002 6.669200e+001
    endloop
  endfacet
  facet normal 0.000000e+000 -2.619196e-002 0.000000e+000
    outer loop
      vertex   2.638159e+001 1.480000e+002 6.669200e+001
      vertex   2.643431e+001 1.480000e+002 6.870425e+001
      vertex   2.638159e+001 1.480000e+002 6.859518e+001
    endloop
  endfacet
  facet normal 0.000000e+000 -3.677956e-001 0.000000e+000
    outer loop
      vertex   2.638159e+001 1.480000e+002 6.669200e+001
      vertex   2.638159e+001 1.480000e+002 6.859518e+001
      vertex   2.633483e+001 1.480000e+002 6.681024e+001
    endloop
  endfacet
  facet normal 0.000000e+000 -2.619145e-002 0.000000e+000
    outer loop
      vertex   2.633483e+001 1.480000e+002 6.681024e+001
      vertex   2.638159e+001 1.480000e+002 6.859518e+001
      vertex   2.633483e+001 1.480000e+002 6.847695e+001
    endloop
  endfacet
  facet normal 0.000000e+000 -3.044922e-001 0.000000e+000
    outer loop
      vertex   2.633483e+001 1.480000e+002 6.681024e+001
      vertex   2.633483e+001 1.480000e+002 6.847695e+001
      vertex   2.629446e+001 1.480000e+002 6.693650e+001
    endloop
  endfacet
  facet normal 0.000000e+000 -2.619204e-002 0.000000e+000
    outer loop
      vertex   2.629446e+001 1.480000e+002 6.693650e+001
      vertex   2.633483e+001 1.480000e+002 6.847695e+001
      vertex   2.629446e+001 1.480000e+002 6.835069e+001
    endloop
  endfacet
  facet normal 0.000000e+000 -2.446019e-001 0.000000e+000
    outer loop
      vertex   2.629446e+001 1.480000e+002 6.693650e+001
      vertex   2.629446e+001 1.480000e+002 6.835069e+001
      vertex   2.626090e+001 1.480000e+002 6.706956e+001
    endloop
  endfacet
  facet normal 0.000000e+000 -2.619263e-002 0.000000e+000
    outer loop
      vertex   2.626090e+001 1.480000e+002 6.706956e+001
      vertex   2.629446e+001 1.480000e+002 6.835069e+001
      vertex   2.626090e+001 1.480000e+002 6.821762e+001
    endloop
  endfacet
  facet normal 0.000000e+000 -1.874444e-001 0.000000e+000
    outer loop
      vertex   2.626090e+001 1.480000e+002 6.706956e+001
      vertex   2.626090e+001 1.480000e+002 6.821762e+001
      vertex   2.623445e+001 1.480000e+002 6.720817e+001
    endloop
  endfacet
  facet normal 0.000000e+000 -2.619254e-002 0.000000e+000
    outer loop
      vertex   2.623445e+001 1.480000e+002 6.720817e+001
      vertex   2.626090e+001 1.480000e+002 6.821762e+001
      vertex   2.623445e+001 1.480000e+002 6.807902e+001
    endloop
  endfacet
  facet normal 0.000000e+000 -1.324126e-001 0.000000e+000
    outer loop
      vertex   2.623445e+001 1.480000e+002 6.720817e+001
      vertex   2.623445e+001 1.480000e+002 6.807902e+001
      vertex   2.621537e+001 1.480000e+002 6.735096e+001
    endloop
  endfacet
  facet normal 0.000000e+000 -2.619139e-002 0.000000e+000
    outer loop
      vertex   2.621537e+001 1.480000e+002 6.735096e+001
      vertex   2.623445e+001 1.480000e+002 6.807902e+001
      vertex   2.621537e+001 1.480000e+002 6.793623e+001
    endloop
  endfacet
  facet normal 0.000000e+000 -7.886027e-002 0.000000e+000
    outer loop
      vertex   2.621537e+001 1.480000e+002 6.735096e+001
      vertex   2.621537e+001 1.480000e+002 6.793623e+001
      vertex   2.620385e+001 1.480000e+002 6.749657e+001
    endloop
  endfacet
  facet normal 0.000000e+000 -2.618967e-002 0.000000e+000
    outer loop
      vertex   2.620385e+001 1.480000e+002 6.749657e+001
      vertex   2.621537e+001 1.480000e+002 6.793623e+001
      vertex   2.620385e+001 1.480000e+002 6.779062e+001
    endloop
  endfacet
  facet normal 0.000000e+000 -2.619619e-002 0.000000e+000
    outer loop
      vertex   2.620385e+001 1.480000e+002 6.749657e+001
      vertex   2.620385e+001 1.480000e+002 6.779062e+001
      vertex   2.620000e+001 1.480000e+002 6.764359e+001
    endloop
  endfacet
  facet normal -0.000000e+000 -7.808689e-001 0.000000e+000
    outer loop
      vertex   2.900000e+001 1.480000e+002 6.914359e+001
      vertex   2.700000e+001 1.480000e+002 6.914359e+001
      vertex   2.720000e+001 1.480000e+002 6.689359e+001
    endloop
  endfacet
  facet normal 0.000000e+000 -1.736450e-002 0.000000e+000
    outer loop
      vertex   2.720000e+001 1.480000e+002 6.689359e+001
      vertex   2.700000e+001 1.480000e+002 6.914359e+001
      vertex   2.696075e+001 1.480000e+002 6.914178e+001
    endloop
  endfacet
  facet normal 0.000000e+000 -1.748376e-002 0.000000e+000
    outer loop
      vertex   2.720000e+001 1.480000e+002 6.689359e+001
      vertex   2.696075e+001 1.480000e+002 6.914178e+001
      vertex   2.692159e+001 1.480000e+002 6.913637e+001
    endloop
  endfacet
  facet normal 0.000000e+000 -1.000000e+000 0.000000e+000
    outer loop
      vertex   2.900000e+001 1.480000e+002 6.914359e+001
      vertex   2.900000e+001 1.480000e+002 7.300000e+001
      vertex   2.700000e+001 1.480000e+002 6.914359e+001
    endloop
  endfacet
  facet normal 0.000000e+000 -4.603864e-001 0.000000e+000
    outer loop
      vertex   2.700000e+001 1.480000e+002 6.914359e+001
      vertex   2.900000e+001 1.480000e+002 7.300000e+001
      vertex   2.700000e+001 1.480000e+002 7.300000e+001
    endloop
  endfacet
  facet normal 0.000000e+000 -9.891034e-001 -0.000000e+000
    outer loop
      vertex   2.692159e+001 1.480000e+002 6.913637e+001
      vertex   2.684393e+001 1.480000e+002 6.911477e+001
      vertex   2.720000e+001 1.480000e+002 6.689359e+001
    endloop
  endfacet
  facet normal 0.000000e+000 -3.629506e-002 0.000000e+000
    outer loop
      vertex   2.720000e+001 1.480000e+002 6.689359e+001
      vertex   2.684393e+001 1.480000e+002 6.911477e+001
      vertex   2.676777e+001 1.480000e+002 6.907900e+001
    endloop
  endfacet
  facet normal 0.000000e+000 -3.742021e-002 0.000000e+000
    outer loop
      vertex   2.720000e+001 1.480000e+002 6.689359e+001
      vertex   2.676777e+001 1.480000e+002 6.907900e+001
      vertex   2.669385e+001 1.480000e+002 6.902941e+001
    endloop
  endfacet
  facet normal 0.000000e+000 -8.810248e-001 -0.000000e+000
    outer loop
      vertex   2.669385e+001 1.480000e+002 6.902941e+001
      vertex   2.662288e+001 1.480000e+002 6.896648e+001
      vertex   2.720000e+001 1.480000e+002 6.689359e+001
    endloop
  endfacet
  facet normal 0.000000e+000 -4.058346e-002 0.000000e+000
    outer loop
      vertex   2.720000e+001 1.480000e+002 6.689359e+001
      vertex   2.662288e+001 1.480000e+002 6.896648e+001
      vertex   2.655554e+001 1.480000e+002 6.889080e+001
    endloop
  endfacet
  facet normal 0.000000e+000 -4.269404e-002 0.000000e+000
    outer loop
      vertex   2.720000e+001 1.480000e+002 6.689359e+001
      vertex   2.655554e+001 1.480000e+002 6.889080e+001
      vertex   2.649249e+001 1.480000e+002 6.880311e+001
    endloop
  endfacet
  facet normal 0.000000e+000 -7.750025e-001 -0.000000e+000
    outer loop
      vertex   2.649249e+001 1.480000e+002 6.880311e+001
      vertex   2.643431e+001 1.480000e+002 6.870425e+001
      vertex   2.720000e+001 1.480000e+002 6.689359e+001
    endloop
  endfacet
  facet normal 1.000000e+000 0.000000e+000 0.000000e+000
    outer loop
      vertex   2.900000e+001 1.520000e+002 6.689359e+001
      vertex   2.900000e+001 1.480000e+002 6.689359e+001
      vertex   2.900000e+001 1.520000e+002 6.614359e+001
    endloop
  endfacet
  facet normal 1.842885e-001 0.000000e+000 0.000000e+000
    outer loop
      vertex   2.900000e+001 1.520000e+002 6.614359e+001
      vertex   2.900000e+001 1.480000e+002 6.689359e+001
      vertex   2.900000e+001 1.480000e+002 6.614359e+001
    endloop
  endfacet
  facet normal 0.000000e+000 0.000000e+000 -1.000000e+000
    outer loop
      vertex   2.700000e+001 1.480000e+002 6.614359e+001
      vertex   2.700000e+001 1.520000e+002 6.614359e+001
      vertex   2.900000e+001 1.480000e+002 6.614359e+001
    endloop
  endfacet
  facet normal 0.000000e+000 0.000000e+000 -4.472136e-001
    outer loop
      vertex   2.900000e+001 1.480000e+002 6.614359e+001
      vertex   2.700000e+001 1.520000e+002 6.614359e+001
      vertex   2.900000e+001 1.520000e+002 6.614359e+001
    endloop
  endfacet
  facet normal -4.600918e-002 1.367963e-003 -9.988070e-001
    outer loop
      vertex   2.696075e+001 1.480000e+002 6.614540e+001
      vertex   2.692829e+001 1.500000e+002 6.614964e+001
      vertex   2.700000e+001 1.480000e+002 6.614359e+001
    endloop
  endfacet
  facet normal -2.567413e-003 -1.343094e-005 -2.602389e-002
    outer loop
      vertex   2.700000e+001 1.480000e+002 6.614359e+001
      vertex   2.692829e+001 1.500000e+002 6.614964e+001
      vertex   2.696075e+001 1.520000e+002 6.614540e+001
    endloop
  endfacet
  facet normal -4.520198e-004 0.000000e+000 -9.812836e-003
    outer loop
      vertex   2.700000e+001 1.480000e+002 6.614359e+001
      vertex   2.696075e+001 1.520000e+002 6.614540e+001
      vertex   2.700000e+001 1.520000e+002 6.614359e+001
    endloop
  endfacet
  facet normal -1.370043e-001 -1.264921e-004 -9.904353e-001
    outer loop
      vertex   2.696075e+001 1.480000e+002 6.614540e+001
      vertex   2.692159e+001 1.480000e+002 6.615082e+001
      vertex   2.692829e+001 1.500000e+002 6.614964e+001
    endloop
  endfacet
  facet normal -2.461586e-001 2.518489e-004 -9.692236e-001
    outer loop
      vertex   2.692829e+001 1.500000e+002 6.614964e+001
      vertex   2.692159e+001 1.480000e+002 6.615082e+001
      vertex   2.685715e+001 1.500000e+002 6.616770e+001
    endloop
  endfacet
  facet normal -2.461586e-001 -2.518489e-004 -9.692236e-001
    outer loop
      vertex   2.692829e+001 1.500000e+002 6.614964e+001
      vertex   2.685715e+001 1.500000e+002 6.616770e+001
      vertex   2.692159e+001 1.520000e+002 6.615082e+001
    endloop
  endfacet
  facet normal -2.678029e-001 4.988404e-004 -9.628986e-001
    outer loop
      vertex   2.692159e+001 1.520000e+002 6.615082e+001
      vertex   2.685715e+001 1.500000e+002 6.616770e+001
      vertex   2.684393e+001 1.520000e+002 6.617242e+001
    endloop
  endfacet
  facet normal -1.496510e-002 -1.652340e-005 -3.497449e-002
    outer loop
      vertex   2.684393e+001 1.520000e+002 6.617242e+001
      vertex   2.685715e+001 1.500000e+002 6.616770e+001
      vertex   2.678717e+001 1.500000e+002 6.619765e+001
    endloop
  endfacet
  facet normal -4.249021e-001 6.450150e-004 -9.047070e-001
    outer loop
      vertex   2.684393e+001 1.520000e+002 6.617242e+001
      vertex   2.678717e+001 1.500000e+002 6.619765e+001
      vertex   2.676777e+001 1.520000e+002 6.620818e+001
    endloop
  endfacet
  facet normal -2.078775e-002 -2.187815e-005 -3.411849e-002
    outer loop
      vertex   2.676777e+001 1.520000e+002 6.620818e+001
      vertex   2.678717e+001 1.500000e+002 6.619765e+001
      vertex   2.671890e+001 1.500000e+002 6.623924e+001
    endloop
  endfacet
  facet normal -5.568874e-001 7.172070e-004 -8.300836e-001
    outer loop
      vertex   2.676777e+001 1.520000e+002 6.620818e+001
      vertex   2.671890e+001 1.500000e+002 6.623924e+001
      vertex   2.669385e+001 1.520000e+002 6.625777e+001
    endloop
  endfacet
  facet normal -2.643464e-002 -2.539459e-005 -3.298802e-002
    outer loop
      vertex   2.669385e+001 1.520000e+002 6.625777e+001
      vertex   2.671890e+001 1.500000e+002 6.623924e+001
      vertex   2.665289e+001 1.500000e+002 6.629214e+001
    endloop
  endfacet
  facet normal -6.632428e-001 7.328846e-004 -7.479271e-001
    outer loop
      vertex   2.669385e+001 1.520000e+002 6.625777e+001
      vertex   2.665289e+001 1.500000e+002 6.629214e+001
      vertex   2.662288e+001 1.520000e+002 6.632071e+001
    endloop
  endfacet
  facet normal -3.187470e-002 -2.699173e-005 -3.158969e-002
    outer loop
      vertex   2.662288e+001 1.520000e+002 6.632071e+001
      vertex   2.665289e+001 1.500000e+002 6.629214e+001
      vertex   2.658968e+001 1.500000e+002 6.635592e+001
    endloop
  endfacet
  facet normal -7.468738e-001 6.996993e-004 -6.645257e-001
    outer loop
      vertex   2.662288e+001 1.520000e+002 6.632071e+001
      vertex   2.658968e+001 1.500000e+002 6.635592e+001
      vertex   2.655554e+001 1.520000e+002 6.639639e+001
    endloop
  endfacet
  facet normal -3.705373e-002 -2.661692e-005 -2.993769e-002
    outer loop
      vertex   2.655554e+001 1.520000e+002 6.639639e+001
      vertex   2.658968e+001 1.500000e+002 6.635592e+001
      vertex   2.652977e+001 1.500000e+002 6.643007e+001
    endloop
  endfacet
  facet normal -8.116770e-001 6.305595e-004 -5.837217e-001
    outer loop
      vertex   2.655554e+001 1.520000e+002 6.639639e+001
      vertex   2.652977e+001 1.500000e+002 6.643007e+001
      vertex   2.649249e+001 1.520000e+002 6.648408e+001
    endloop
  endfacet
  facet normal -4.192874e-002 -2.445554e-005 -2.804144e-002
    outer loop
      vertex   2.649249e+001 1.520000e+002 6.648408e+001
      vertex   2.652977e+001 1.500000e+002 6.643007e+001
      vertex   2.647365e+001 1.500000e+002 6.651398e+001
    endloop
  endfacet
  facet normal -8.617201e-001 5.326585e-004 -5.070761e-001
    outer loop
      vertex   2.649249e+001 1.520000e+002 6.648408e+001
      vertex   2.647365e+001 1.500000e+002 6.651398e+001
      vertex   2.643431e+001 1.520000e+002 6.658293e+001
    endloop
  endfacet
  facet normal -4.646792e-002 -2.036243e-005 -2.592001e-002
    outer loop
      vertex   2.643431e+001 1.520000e+002 6.658293e+001
      vertex   2.647365e+001 1.500000e+002 6.651398e+001
      vertex   2.642176e+001 1.500000e+002 6.660700e+001
    endloop
  endfacet
  facet normal -9.002471e-001 4.118056e-004 -4.351677e-001
    outer loop
      vertex   2.643431e+001 1.520000e+002 6.658293e+001
      vertex   2.642176e+001 1.500000e+002 6.660700e+001
      vertex   2.638159e+001 1.520000e+002 6.669200e+001
    endloop
  endfacet
  facet normal -5.062035e-002 -1.429992e-005 -2.358790e-002
    outer loop
      vertex   2.638159e+001 1.520000e+002 6.669200e+001
      vertex   2.642176e+001 1.500000e+002 6.660700e+001
      vertex   2.637453e+001 1.500000e+002 6.670836e+001
    endloop
  endfacet
  facet normal -9.298698e-001 2.731597e-004 -3.677810e-001
    outer loop
      vertex   2.638159e+001 1.520000e+002 6.669200e+001
      vertex   2.637453e+001 1.500000e+002 6.670836e+001
      vertex   2.633483e+001 1.520000e+002 6.681024e+001
    endloop
  endfacet
  facet normal -5.436179e-002 -6.265872e-006 -2.106462e-002
    outer loop
      vertex   2.633483e+001 1.520000e+002 6.681024e+001
      vertex   2.637453e+001 1.500000e+002 6.670836e+001
      vertex   2.633234e+001 1.500000e+002 6.681725e+001
    endloop
  endfacet
  facet normal -9.525083e-001 1.164227e-004 -3.044901e-001
    outer loop
      vertex   2.633483e+001 1.520000e+002 6.681024e+001
      vertex   2.633234e+001 1.500000e+002 6.681725e+001
      vertex   2.629446e+001 1.520000e+002 6.693650e+001
    endloop
  endfacet
  facet normal -5.766075e-002 3.487955e-006 -1.837282e-002
    outer loop
      vertex   2.629446e+001 1.520000e+002 6.693650e+001
      vertex   2.633234e+001 1.500000e+002 6.681725e+001
      vertex   2.629552e+001 1.500000e+002 6.693279e+001
    endloop
  endfacet
  facet normal -6.051940e-002 -3.270649e-006 -1.554489e-002
    outer loop
      vertex   2.629446e+001 1.520000e+002 6.693650e+001
      vertex   2.629552e+001 1.500000e+002 6.693279e+001
      vertex   2.626438e+001 1.500000e+002 6.705405e+001
    endloop
  endfacet
  facet normal -9.667817e-001 5.224777e-005 -2.483256e-001
    outer loop
      vertex   2.626438e+001 1.500000e+002 6.705405e+001
      vertex   2.629552e+001 1.500000e+002 6.693279e+001
      vertex   2.629446e+001 1.480000e+002 6.693650e+001
    endloop
  endfacet
  facet normal -6.640792e-002 -1.433935e-005 -1.675238e-002
    outer loop
      vertex   2.626438e+001 1.500000e+002 6.705405e+001
      vertex   2.629446e+001 1.480000e+002 6.693650e+001
      vertex   2.626090e+001 1.480000e+002 6.706956e+001
    endloop
  endfacet
  facet normal -2.678029e-001 -4.988404e-004 -9.628986e-001
    outer loop
      vertex   2.692159e+001 1.480000e+002 6.615082e+001
      vertex   2.684393e+001 1.480000e+002 6.617242e+001
      vertex   2.685715e+001 1.500000e+002 6.616770e+001
    endloop
  endfacet
  facet normal -3.933773e-001 4.343392e-004 -9.193503e-001
    outer loop
      vertex   2.685715e+001 1.500000e+002 6.616770e+001
      vertex   2.684393e+001 1.480000e+002 6.617242e+001
      vertex   2.678717e+001 1.500000e+002 6.619765e+001
    endloop
  endfacet
  facet normal -4.249021e-001 -6.450150e-004 -9.047070e-001
    outer loop
      vertex   2.684393e+001 1.480000e+002 6.617242e+001
      vertex   2.676777e+001 1.480000e+002 6.620818e+001
      vertex   2.678717e+001 1.500000e+002 6.619765e+001
    endloop
  endfacet
  facet normal -5.202801e-001 5.475708e-004 -8.539244e-001
    outer loop
      vertex   2.678717e+001 1.500000e+002 6.619765e+001
      vertex   2.676777e+001 1.480000e+002 6.620818e+001
      vertex   2.671890e+001 1.500000e+002 6.623924e+001
    endloop
  endfacet
  facet normal -5.568874e-001 -7.172070e-004 -8.300836e-001
    outer loop
      vertex   2.676777e+001 1.480000e+002 6.620818e+001
      vertex   2.669385e+001 1.480000e+002 6.625777e+001
      vertex   2.671890e+001 1.500000e+002 6.623924e+001
    endloop
  endfacet
  facet normal -6.252570e-001 6.006566e-004 -7.802635e-001
    outer loop
      vertex   2.671890e+001 1.500000e+002 6.623924e+001
      vertex   2.669385e+001 1.480000e+002 6.625777e+001
      vertex   2.665289e+001 1.500000e+002 6.629214e+001
    endloop
  endfacet
  facet normal -6.632428e-001 -7.328846e-004 -7.479271e-001
    outer loop
      vertex   2.669385e+001 1.480000e+002 6.625777e+001
      vertex   2.662288e+001 1.480000e+002 6.632071e+001
      vertex   2.665289e+001 1.500000e+002 6.629214e+001
    endloop
  endfacet
  facet normal -7.101227e-001 6.013372e-004 -7.037732e-001
    outer loop
      vertex   2.665289e+001 1.500000e+002 6.629214e+001
      vertex   2.662288e+001 1.480000e+002 6.632071e+001
      vertex   2.658968e+001 1.500000e+002 6.635592e+001
    endloop
  endfacet
  facet normal -7.468738e-001 -6.996993e-004 -6.645257e-001
    outer loop
      vertex   2.662288e+001 1.480000e+002 6.632071e+001
      vertex   2.655554e+001 1.480000e+002 6.639639e+001
      vertex   2.658968e+001 1.500000e+002 6.635592e+001
    endloop
  endfacet
  facet normal -7.775694e-001 5.585538e-004 -6.282399e-001
    outer loop
      vertex   2.658968e+001 1.500000e+002 6.635592e+001
      vertex   2.655554e+001 1.480000e+002 6.639639e+001
      vertex   2.652977e+001 1.500000e+002 6.643007e+001
    endloop
  endfacet
  facet normal -8.116770e-001 -6.305595e-004 -5.837217e-001
    outer loop
      vertex   2.655554e+001 1.480000e+002 6.639639e+001
      vertex   2.649249e+001 1.480000e+002 6.648408e+001
      vertex   2.652977e+001 1.500000e+002 6.643007e+001
    endloop
  endfacet
  facet normal -8.307884e-001 4.845692e-004 -5.556213e-001
    outer loop
      vertex   2.652977e+001 1.500000e+002 6.643007e+001
      vertex   2.649249e+001 1.480000e+002 6.648408e+001
      vertex   2.647365e+001 1.500000e+002 6.651398e+001
    endloop
  endfacet
  facet normal -8.617201e-001 -5.326585e-004 -5.070761e-001
    outer loop
      vertex   2.649249e+001 1.480000e+002 6.648408e+001
      vertex   2.643431e+001 1.480000e+002 6.658293e+001
      vertex   2.647365e+001 1.500000e+002 6.651398e+001
    endloop
  endfacet
  facet normal -8.726352e-001 3.823923e-004 -4.867597e-001
    outer loop
      vertex   2.647365e+001 1.500000e+002 6.651398e+001
      vertex   2.643431e+001 1.480000e+002 6.658293e+001
      vertex   2.642176e+001 1.500000e+002 6.660700e+001
    endloop
  endfacet
  facet normal -9.002471e-001 -4.118056e-004 -4.351677e-001
    outer loop
      vertex   2.643431e+001 1.480000e+002 6.658293e+001
      vertex   2.638159e+001 1.480000e+002 6.669200e+001
      vertex   2.642176e+001 1.500000e+002 6.660700e+001
    endloop
  endfacet
  facet normal -9.054229e-001 2.557760e-004 -4.219059e-001
    outer loop
      vertex   2.642176e+001 1.500000e+002 6.660700e+001
      vertex   2.638159e+001 1.480000e+002 6.669200e+001
      vertex   2.637453e+001 1.500000e+002 6.670836e+001
    endloop
  endfacet
  facet normal -9.298698e-001 -2.731597e-004 -3.677810e-001
    outer loop
      vertex   2.638159e+001 1.480000e+002 6.669200e+001
      vertex   2.633483e+001 1.480000e+002 6.681024e+001
      vertex   2.637453e+001 1.500000e+002 6.670836e+001
    endloop
  endfacet
  facet normal -9.310542e-001 1.073156e-004 -3.607737e-001
    outer loop
      vertex   2.637453e+001 1.500000e+002 6.670836e+001
      vertex   2.633483e+001 1.480000e+002 6.681024e+001
      vertex   2.633234e+001 1.500000e+002 6.681725e+001
    endloop
  endfacet
  facet normal -9.525083e-001 -1.164227e-004 -3.044901e-001
    outer loop
      vertex   2.633483e+001 1.480000e+002 6.681024e+001
      vertex   2.629446e+001 1.480000e+002 6.693650e+001
      vertex   2.633234e+001 1.500000e+002 6.681725e+001
    endloop
  endfacet
  facet normal -9.509413e-001 -5.752336e-005 -3.030046e-001
    outer loop
      vertex   2.633234e+001 1.500000e+002 6.681725e+001
      vertex   2.629446e+001 1.480000e+002 6.693650e+001
      vertex   2.629552e+001 1.500000e+002 6.693279e+001
    endloop
  endfacet
  facet normal -9.805200e-001 1.845132e-004 -1.962584e-001
    outer loop
      vertex   2.626438e+001 1.500000e+002 6.705405e+001
      vertex   2.626090e+001 1.480000e+002 6.706956e+001
      vertex   2.623915e+001 1.500000e+002 6.718007e+001
    endloop
  endfacet
  facet normal -6.918497e-002 -2.264827e-005 -1.320234e-002
    outer loop
      vertex   2.623915e+001 1.500000e+002 6.718007e+001
      vertex   2.626090e+001 1.480000e+002 6.706956e+001
      vertex   2.623445e+001 1.480000e+002 6.720817e+001
    endloop
  endfacet
  facet normal -9.892410e-001 2.827363e-004 -1.455998e-001
    outer loop
      vertex   2.623915e+001 1.500000e+002 6.718007e+001
      vertex   2.623445e+001 1.480000e+002 6.720817e+001
      vertex   2.622006e+001 1.500000e+002 6.730981e+001
    endloop
  endfacet
  facet normal -7.128672e-002 -2.887837e-005 -9.523116e-003
    outer loop
      vertex   2.622006e+001 1.500000e+002 6.730981e+001
      vertex   2.623445e+001 1.480000e+002 6.720817e+001
      vertex   2.621537e+001 1.480000e+002 6.735096e+001
    endloop
  endfacet
  facet normal -9.951357e-001 3.503331e-004 -9.631455e-002
    outer loop
      vertex   2.622006e+001 1.500000e+002 6.730981e+001
      vertex   2.621537e+001 1.480000e+002 6.735096e+001
      vertex   2.620724e+001 1.500000e+002 6.744225e+001
    endloop
  endfacet
  facet normal -7.270027e-002 -3.306855e-005 -5.751073e-003
    outer loop
      vertex   2.620724e+001 1.500000e+002 6.744225e+001
      vertex   2.621537e+001 1.480000e+002 6.735096e+001
      vertex   2.620385e+001 1.480000e+002 6.749657e+001
    endloop
  endfacet
  facet normal -9.984800e-001 3.892057e-004 -4.793499e-002
    outer loop
      vertex   2.620724e+001 1.500000e+002 6.744225e+001
      vertex   2.620385e+001 1.480000e+002 6.749657e+001
      vertex   2.620081e+001 1.500000e+002 6.757629e+001
    endloop
  endfacet
  facet normal -7.341305e-002 -3.518975e-005 -1.923802e-003
    outer loop
      vertex   2.620081e+001 1.500000e+002 6.757629e+001
      vertex   2.620385e+001 1.480000e+002 6.749657e+001
      vertex   2.620000e+001 1.480000e+002 6.764359e+001
    endloop
  endfacet
  facet normal -9.994342e-001 4.022229e-004 0.000000e+000
    outer loop
      vertex   2.620081e+001 1.500000e+002 6.757629e+001
      vertex   2.620000e+001 1.480000e+002 6.764359e+001
      vertex   2.620081e+001 1.500000e+002 6.771089e+001
    endloop
  endfacet
  facet normal -7.341305e-002 -3.518975e-005 1.923802e-003
    outer loop
      vertex   2.620081e+001 1.500000e+002 6.771089e+001
      vertex   2.620000e+001 1.480000e+002 6.764359e+001
      vertex   2.620385e+001 1.480000e+002 6.779062e+001
    endloop
  endfacet
  facet normal -9.980558e-001 3.890404e-004 4.791463e-002
    outer loop
      vertex   2.620081e+001 1.500000e+002 6.771089e+001
      vertex   2.620385e+001 1.480000e+002 6.779062e+001
      vertex   2.620724e+001 1.500000e+002 6.784494e+001
    endloop
  endfacet
  facet normal -7.270027e-002 -3.306855e-005 5.751073e-003
    outer loop
      vertex   2.620724e+001 1.500000e+002 6.784494e+001
      vertex   2.620385e+001 1.480000e+002 6.779062e+001
      vertex   2.621537e+001 1.480000e+002 6.793623e+001
    endloop
  endfacet
  facet normal -9.943056e-001 3.500409e-004 9.623421e-002
    outer loop
      vertex   2.620724e+001 1.500000e+002 6.784494e+001
      vertex   2.621537e+001 1.480000e+002 6.793623e+001
      vertex   2.622006e+001 1.500000e+002 6.797737e+001
    endloop
  endfacet
  facet normal -7.128672e-002 -2.887837e-005 9.523116e-003
    outer loop
      vertex   2.622006e+001 1.500000e+002 6.797737e+001
      vertex   2.621537e+001 1.480000e+002 6.793623e+001
      vertex   2.623445e+001 1.480000e+002 6.807902e+001
    endloop
  endfacet
  facet normal -9.880406e-001 2.823932e-004 1.454231e-001
    outer loop
      vertex   2.622006e+001 1.500000e+002 6.797737e+001
      vertex   2.623445e+001 1.480000e+002 6.807902e+001
      vertex   2.623915e+001 1.500000e+002 6.810712e+001
    endloop
  endfacet
  facet normal -6.918497e-002 -2.264827e-005 1.320234e-002
    outer loop
      vertex   2.623915e+001 1.500000e+002 6.810712e+001
      vertex   2.623445e+001 1.480000e+002 6.807902e+001
      vertex   2.626090e+001 1.480000e+002 6.821762e+001
    endloop
  endfacet
  facet normal -9.790000e-001 1.842272e-004 1.959541e-001
    outer loop
      vertex   2.623915e+001 1.500000e+002 6.810712e+001
      vertex   2.626090e+001 1.480000e+002 6.821762e+001
      vertex   2.626438e+001 1.500000e+002 6.823313e+001
    endloop
  endfacet
  facet normal -6.640792e-002 -1.433935e-005 1.675238e-002
    outer loop
      vertex   2.626438e+001 1.500000e+002 6.823313e+001
      vertex   2.626090e+001 1.480000e+002 6.821762e+001
      vertex   2.629446e+001 1.480000e+002 6.835069e+001
    endloop
  endfacet
  facet normal -9.667817e-001 5.224777e-005 2.483256e-001
    outer loop
      vertex   2.626438e+001 1.500000e+002 6.823313e+001
      vertex   2.629446e+001 1.480000e+002 6.835069e+001
      vertex   2.629552e+001 1.500000e+002 6.835439e+001
    endloop
  endfacet
  facet normal -9.527987e-001 -5.763572e-005 3.035965e-001
    outer loop
      vertex   2.629552e+001 1.500000e+002 6.835439e+001
      vertex   2.629446e+001 1.480000e+002 6.835069e+001
      vertex   2.633234e+001 1.500000e+002 6.846994e+001
    endloop
  endfacet
  facet normal -9.527987e-001 5.763572e-005 3.035965e-001
    outer loop
      vertex   2.629552e+001 1.500000e+002 6.835439e+001
      vertex   2.633234e+001 1.500000e+002 6.846994e+001
      vertex   2.629446e+001 1.520000e+002 6.835069e+001
    endloop
  endfacet
  facet normal -9.506615e-001 1.151021e-004 3.038814e-001
    outer loop
      vertex   2.629446e+001 1.520000e+002 6.835069e+001
      vertex   2.633234e+001 1.500000e+002 6.846994e+001
      vertex   2.633483e+001 1.520000e+002 6.847695e+001
    endloop
  endfacet
  facet normal -5.436181e-002 -6.346228e-006 2.106463e-002
    outer loop
      vertex   2.633483e+001 1.520000e+002 6.847695e+001
      vertex   2.633234e+001 1.500000e+002 6.846994e+001
      vertex   2.637453e+001 1.500000e+002 6.857883e+001
    endloop
  endfacet
  facet normal -9.285120e-001 2.725670e-004 3.672676e-001
    outer loop
      vertex   2.633483e+001 1.520000e+002 6.847695e+001
      vertex   2.637453e+001 1.500000e+002 6.857883e+001
      vertex   2.638159e+001 1.520000e+002 6.859518e+001
    endloop
  endfacet
  facet normal -5.062415e-002 -1.428647e-005 2.358790e-002
    outer loop
      vertex   2.638159e+001 1.520000e+002 6.859518e+001
      vertex   2.637453e+001 1.500000e+002 6.857883e+001
      vertex   2.642176e+001 1.500000e+002 6.868019e+001
    endloop
  endfacet
  facet normal -8.993368e-001 4.130475e-004 4.347277e-001
    outer loop
      vertex   2.638159e+001 1.520000e+002 6.859518e+001
      vertex   2.642176e+001 1.500000e+002 6.868019e+001
      vertex   2.643431e+001 1.520000e+002 6.870425e+001
    endloop
  endfacet
  facet normal -4.646411e-002 -2.028747e-005 2.592001e-002
    outer loop
      vertex   2.643431e+001 1.520000e+002 6.870425e+001
      vertex   2.642176e+001 1.500000e+002 6.868019e+001
      vertex   2.647365e+001 1.500000e+002 6.877320e+001
    endloop
  endfacet
  facet normal -8.611767e-001 5.323226e-004 5.067563e-001
    outer loop
      vertex   2.643431e+001 1.520000e+002 6.870425e+001
      vertex   2.647365e+001 1.500000e+002 6.877320e+001
      vertex   2.649249e+001 1.520000e+002 6.880311e+001
    endloop
  endfacet
  facet normal -4.192874e-002 -2.445554e-005 2.804144e-002
    outer loop
      vertex   2.649249e+001 1.520000e+002 6.880311e+001
      vertex   2.647365e+001 1.500000e+002 6.877320e+001
      vertex   2.652977e+001 1.500000e+002 6.885712e+001
    endloop
  endfacet
  facet normal -8.114468e-001 6.290096e-004 5.835053e-001
    outer loop
      vertex   2.649249e+001 1.520000e+002 6.880311e+001
      vertex   2.652977e+001 1.500000e+002 6.885712e+001
      vertex   2.655554e+001 1.520000e+002 6.889080e+001
    endloop
  endfacet
  facet normal -3.705373e-002 -2.673112e-005 2.993769e-002
    outer loop
      vertex   2.655554e+001 1.520000e+002 6.889080e+001
      vertex   2.652977e+001 1.500000e+002 6.885712e+001
      vertex   2.658968e+001 1.500000e+002 6.893127e+001
    endloop
  endfacet
  facet normal -7.467975e-001 6.984486e-004 6.645248e-001
    outer loop
      vertex   2.655554e+001 1.520000e+002 6.889080e+001
      vertex   2.658968e+001 1.500000e+002 6.893127e+001
      vertex   2.662288e+001 1.520000e+002 6.896648e+001
    endloop
  endfacet
  facet normal -3.187470e-002 -2.699173e-005 3.158969e-002
    outer loop
      vertex   2.662288e+001 1.520000e+002 6.896648e+001
      vertex   2.658968e+001 1.500000e+002 6.893127e+001
      vertex   2.665289e+001 1.500000e+002 6.899505e+001
    endloop
  endfacet
  facet normal -6.633374e-001 7.329891e-004 7.480337e-001
    outer loop
      vertex   2.662288e+001 1.520000e+002 6.896648e+001
      vertex   2.665289e+001 1.500000e+002 6.899505e+001
      vertex   2.669385e+001 1.520000e+002 6.902941e+001
    endloop
  endfacet
  facet normal -2.643464e-002 -2.539459e-005 3.298802e-002
    outer loop
      vertex   2.669385e+001 1.520000e+002 6.902941e+001
      vertex   2.665289e+001 1.500000e+002 6.899505e+001
      vertex   2.671890e+001 1.500000e+002 6.904794e+001
    endloop
  endfacet
  facet normal -5.570532e-001 7.174205e-004 8.303307e-001
    outer loop
      vertex   2.669385e+001 1.520000e+002 6.902941e+001
      vertex   2.671890e+001 1.500000e+002 6.904794e+001
      vertex   2.676777e+001 1.520000e+002 6.907900e+001
    endloop
  endfacet
  facet normal -2.078775e-002 -2.187815e-005 3.411849e-002
    outer loop
      vertex   2.676777e+001 1.520000e+002 6.907900e+001
      vertex   2.671890e+001 1.500000e+002 6.904794e+001
      vertex   2.678717e+001 1.500000e+002 6.908954e+001
    endloop
  endfacet
  facet normal -4.250810e-001 6.452866e-004 9.050880e-001
    outer loop
      vertex   2.676777e+001 1.520000e+002 6.907900e+001
      vertex   2.678717e+001 1.500000e+002 6.908954e+001
      vertex   2.684393e+001 1.520000e+002 6.911477e+001
    endloop
  endfacet
  facet normal -1.496891e-002 -1.641520e-005 3.497449e-002
    outer loop
      vertex   2.684393e+001 1.520000e+002 6.911477e+001
      vertex   2.678717e+001 1.500000e+002 6.908954e+001
      vertex   2.685715e+001 1.500000e+002 6.911949e+001
    endloop
  endfacet
  facet normal -2.679448e-001 5.027798e-004 9.634086e-001
    outer loop
      vertex   2.684393e+001 1.520000e+002 6.911477e+001
      vertex   2.685715e+001 1.500000e+002 6.911949e+001
      vertex   2.692159e+001 1.520000e+002 6.913637e+001
    endloop
  endfacet
  facet normal -9.028146e-003 -9.101243e-006 3.554737e-002
    outer loop
      vertex   2.692159e+001 1.520000e+002 6.913637e+001
      vertex   2.685715e+001 1.500000e+002 6.911949e+001
      vertex   2.692829e+001 1.500000e+002 6.913756e+001
    endloop
  endfacet
  facet normal -1.370219e-001 1.302870e-004 9.905622e-001
    outer loop
      vertex   2.692159e+001 1.520000e+002 6.913637e+001
      vertex   2.692829e+001 1.500000e+002 6.913756e+001
      vertex   2.696075e+001 1.520000e+002 6.914178e+001
    endloop
  endfacet
  facet normal -4.600918e-002 -1.364153e-003 9.988070e-001
    outer loop
      vertex   2.696075e+001 1.520000e+002 6.914178e+001
      vertex   2.692829e+001 1.500000e+002 6.913756e+001
      vertex   2.700000e+001 1.520000e+002 6.914359e+001
    endloop
  endfacet
  facet normal -2.563601e-003 1.339353e-005 2.602389e-002
    outer loop
      vertex   2.700000e+001 1.520000e+002 6.914359e+001
      vertex   2.692829e+001 1.500000e+002 6.913756e+001
      vertex   2.696075e+001 1.480000e+002 6.914178e+001
    endloop
  endfacet
  facet normal -4.520198e-004 0.000000e+000 9.812836e-003
    outer loop
      vertex   2.700000e+001 1.520000e+002 6.914359e+001
      vertex   2.696075e+001 1.480000e+002 6.914178e+001
      vertex   2.700000e+001 1.480000e+002 6.914359e+001
    endloop
  endfacet
  facet normal -9.506615e-001 -1.151021e-004 3.038814e-001
    outer loop
      vertex   2.629446e+001 1.480000e+002 6.835069e+001
      vertex   2.633483e+001 1.480000e+002 6.847695e+001
      vertex   2.633234e+001 1.500000e+002 6.846994e+001
    endloop
  endfacet
  facet normal -9.324383e-001 1.088534e-004 3.613100e-001
    outer loop
      vertex   2.633234e+001 1.500000e+002 6.846994e+001
      vertex   2.633483e+001 1.480000e+002 6.847695e+001
      vertex   2.637453e+001 1.500000e+002 6.857883e+001
    endloop
  endfacet
  facet normal -9.285120e-001 -2.725670e-004 3.672676e-001
    outer loop
      vertex   2.633483e+001 1.480000e+002 6.847695e+001
      vertex   2.638159e+001 1.480000e+002 6.859518e+001
      vertex   2.637453e+001 1.500000e+002 6.857883e+001
    endloop
  endfacet
  facet normal -9.063989e-001 2.557918e-004 4.223289e-001
    outer loop
      vertex   2.637453e+001 1.500000e+002 6.857883e+001
      vertex   2.638159e+001 1.480000e+002 6.859518e+001
      vertex   2.642176e+001 1.500000e+002 6.868019e+001
    endloop
  endfacet
  facet normal -8.993368e-001 -4.130475e-004 4.347277e-001
    outer loop
      vertex   2.638159e+001 1.480000e+002 6.859518e+001
      vertex   2.643431e+001 1.480000e+002 6.870425e+001
      vertex   2.642176e+001 1.500000e+002 6.868019e+001
    endloop
  endfacet
  facet normal -8.732249e-001 3.812733e-004 4.871286e-001
    outer loop
      vertex   2.642176e+001 1.500000e+002 6.868019e+001
      vertex   2.643431e+001 1.480000e+002 6.870425e+001
      vertex   2.647365e+001 1.500000e+002 6.877320e+001
    endloop
  endfacet
  facet normal -8.611767e-001 -5.323226e-004 5.067563e-001
    outer loop
      vertex   2.643431e+001 1.480000e+002 6.870425e+001
      vertex   2.649249e+001 1.480000e+002 6.880311e+001
      vertex   2.647365e+001 1.500000e+002 6.877320e+001
    endloop
  endfacet
  facet normal -8.311058e-001 4.847543e-004 5.558336e-001
    outer loop
      vertex   2.647365e+001 1.500000e+002 6.877320e+001
      vertex   2.649249e+001 1.480000e+002 6.880311e+001
      vertex   2.652977e+001 1.500000e+002 6.885712e+001
    endloop
  endfacet
  facet normal -8.114468e-001 -6.290096e-004 5.835053e-001
    outer loop
      vertex   2.649249e+001 1.480000e+002 6.880311e+001
      vertex   2.655554e+001 1.480000e+002 6.889080e+001
      vertex   2.652977e+001 1.500000e+002 6.885712e+001
    endloop
  endfacet
  facet normal -7.776670e-001 5.610208e-004 6.283188e-001
    outer loop
      vertex   2.652977e+001 1.500000e+002 6.885712e+001
      vertex   2.655554e+001 1.480000e+002 6.889080e+001
      vertex   2.658968e+001 1.500000e+002 6.893127e+001
    endloop
  endfacet
  facet normal -7.467975e-001 -6.984486e-004 6.645248e-001
    outer loop
      vertex   2.655554e+001 1.480000e+002 6.889080e+001
      vertex   2.662288e+001 1.480000e+002 6.896648e+001
      vertex   2.658968e+001 1.500000e+002 6.893127e+001
    endloop
  endfacet
  facet normal -7.100672e-001 6.012902e-004 7.037182e-001
    outer loop
      vertex   2.658968e+001 1.500000e+002 6.893127e+001
      vertex   2.662288e+001 1.480000e+002 6.896648e+001
      vertex   2.665289e+001 1.500000e+002 6.899505e+001
    endloop
  endfacet
  facet normal -6.633374e-001 -7.329891e-004 7.480337e-001
    outer loop
      vertex   2.662288e+001 1.480000e+002 6.896648e+001
      vertex   2.669385e+001 1.480000e+002 6.902941e+001
      vertex   2.665289e+001 1.500000e+002 6.899505e+001
    endloop
  endfacet
  facet normal -6.251095e-001 6.005150e-004 7.800795e-001
    outer loop
      vertex   2.665289e+001 1.500000e+002 6.899505e+001
      vertex   2.669385e+001 1.480000e+002 6.902941e+001
      vertex   2.671890e+001 1.500000e+002 6.904794e+001
    endloop
  endfacet
  facet normal -5.570532e-001 -7.174205e-004 8.303307e-001
    outer loop
      vertex   2.669385e+001 1.480000e+002 6.902941e+001
      vertex   2.676777e+001 1.480000e+002 6.907900e+001
      vertex   2.671890e+001 1.500000e+002 6.904794e+001
    endloop
  endfacet
  facet normal -5.200938e-001 5.473748e-004 8.536187e-001
    outer loop
      vertex   2.671890e+001 1.500000e+002 6.904794e+001
      vertex   2.676777e+001 1.480000e+002 6.907900e+001
      vertex   2.678717e+001 1.500000e+002 6.908954e+001
    endloop
  endfacet
  facet normal -4.250810e-001 -6.452866e-004 9.050880e-001
    outer loop
      vertex   2.676777e+001 1.480000e+002 6.907900e+001
      vertex   2.684393e+001 1.480000e+002 6.911477e+001
      vertex   2.678717e+001 1.500000e+002 6.908954e+001
    endloop
  endfacet
  facet normal -3.932821e-001 4.312806e-004 9.188937e-001
    outer loop
      vertex   2.678717e+001 1.500000e+002 6.908954e+001
      vertex   2.684393e+001 1.480000e+002 6.911477e+001
      vertex   2.685715e+001 1.500000e+002 6.911949e+001
    endloop
  endfacet
  facet normal -2.679448e-001 -5.027798e-004 9.634086e-001
    outer loop
      vertex   2.684393e+001 1.480000e+002 6.911477e+001
      vertex   2.692159e+001 1.480000e+002 6.913637e+001
      vertex   2.685715e+001 1.500000e+002 6.911949e+001
    endloop
  endfacet
  facet normal -2.460237e-001 2.480156e-004 9.686922e-001
    outer loop
      vertex   2.685715e+001 1.500000e+002 6.911949e+001
      vertex   2.692159e+001 1.480000e+002 6.913637e+001
      vertex   2.692829e+001 1.500000e+002 6.913756e+001
    endloop
  endfacet
  facet normal -1.370219e-001 -1.302870e-004 9.905622e-001
    outer loop
      vertex   2.692159e+001 1.480000e+002 6.913637e+001
      vertex   2.696075e+001 1.480000e+002 6.914178e+001
      vertex   2.692829e+001 1.500000e+002 6.913756e+001
    endloop
  endfacet
  facet normal -9.685577e-001 -5.234375e-005 2.487817e-001
    outer loop
      vertex   2.629552e+001 1.500000e+002 6.835439e+001
      vertex   2.629446e+001 1.520000e+002 6.835069e+001
      vertex   2.626438e+001 1.500000e+002 6.823313e+001
    endloop
  endfacet
  facet normal -6.640792e-002 1.433935e-005 1.675238e-002
    outer loop
      vertex   2.626438e+001 1.500000e+002 6.823313e+001
      vertex   2.629446e+001 1.520000e+002 6.835069e+001
      vertex   2.626090e+001 1.520000e+002 6.821762e+001
    endloop
  endfacet
  facet normal -9.805200e-001 -1.845132e-004 1.962584e-001
    outer loop
      vertex   2.626438e+001 1.500000e+002 6.823313e+001
      vertex   2.626090e+001 1.520000e+002 6.821762e+001
      vertex   2.623915e+001 1.500000e+002 6.810712e+001
    endloop
  endfacet
  facet normal -6.918497e-002 2.264827e-005 1.320234e-002
    outer loop
      vertex   2.623915e+001 1.500000e+002 6.810712e+001
      vertex   2.626090e+001 1.520000e+002 6.821762e+001
      vertex   2.623445e+001 1.520000e+002 6.807902e+001
    endloop
  endfacet
  facet normal -9.892410e-001 -2.827363e-004 1.455998e-001
    outer loop
      vertex   2.623915e+001 1.500000e+002 6.810712e+001
      vertex   2.623445e+001 1.520000e+002 6.807902e+001
      vertex   2.622006e+001 1.500000e+002 6.797737e+001
    endloop
  endfacet
  facet normal -7.128672e-002 2.887837e-005 9.523116e-003
    outer loop
      vertex   2.622006e+001 1.500000e+002 6.797737e+001
      vertex   2.623445e+001 1.520000e+002 6.807902e+001
      vertex   2.621537e+001 1.520000e+002 6.793623e+001
    endloop
  endfacet
  facet normal -9.951357e-001 -3.503331e-004 9.631455e-002
    outer loop
      vertex   2.622006e+001 1.500000e+002 6.797737e+001
      vertex   2.621537e+001 1.520000e+002 6.793623e+001
      vertex   2.620724e+001 1.500000e+002 6.784494e+001
    endloop
  endfacet
  facet normal -7.270027e-002 3.306855e-005 5.751073e-003
    outer loop
      vertex   2.620724e+001 1.500000e+002 6.784494e+001
      vertex   2.621537e+001 1.520000e+002 6.793623e+001
      vertex   2.620385e+001 1.520000e+002 6.779062e+001
    endloop
  endfacet
  facet normal -9.984800e-001 -3.892057e-004 4.793499e-002
    outer loop
      vertex   2.620724e+001 1.500000e+002 6.784494e+001
      vertex   2.620385e+001 1.520000e+002 6.779062e+001
      vertex   2.620081e+001 1.500000e+002 6.771089e+001
    endloop
  endfacet
  facet normal -7.341305e-002 3.518975e-005 1.923802e-003
    outer loop
      vertex   2.620081e+001 1.500000e+002 6.771089e+001
      vertex   2.620385e+001 1.520000e+002 6.779062e+001
      vertex   2.620000e+001 1.520000e+002 6.764359e+001
    endloop
  endfacet
  facet normal -9.994342e-001 -4.022229e-004 -0.000000e+000
    outer loop
      vertex   2.620081e+001 1.500000e+002 6.771089e+001
      vertex   2.620000e+001 1.520000e+002 6.764359e+001
      vertex   2.620081e+001 1.500000e+002 6.757629e+001
    endloop
  endfacet
  facet normal -7.341305e-002 3.518975e-005 -1.923802e-003
    outer loop
      vertex   2.620081e+001 1.500000e+002 6.757629e+001
      vertex   2.620000e+001 1.520000e+002 6.764359e+001
      vertex   2.620385e+001 1.520000e+002 6.749657e+001
    endloop
  endfacet
  facet normal -9.980558e-001 -3.890404e-004 -4.791463e-002
    outer loop
      vertex   2.620081e+001 1.500000e+002 6.757629e+001
      vertex   2.620385e+001 1.520000e+002 6.749657e+001
      vertex   2.620724e+001 1.500000e+002 6.744225e+001
    endloop
  endfacet
  facet normal -7.270027e-002 3.306855e-005 -5.751073e-003
    outer loop
      vertex   2.620724e+001 1.500000e+002 6.744225e+001
      vertex   2.620385e+001 1.520000e+002 6.749657e+001
      vertex   2.621537e+001 1.520000e+002 6.735096e+001
    endloop
  endfacet
  facet normal -9.943056e-001 -3.500409e-004 -9.623421e-002
    outer loop
      vertex   2.620724e+001 1.500000e+002 6.744225e+001
      vertex   2.621537e+001 1.520000e+002 6.735096e+001
      vertex   2.622006e+001 1.500000e+002 6.730981e+001
    endloop
  endfacet
  facet normal -7.128672e-002 2.887837e-005 -9.523116e-003
    outer loop
      vertex   2.622006e+001 1.500000e+002 6.730981e+001
      vertex   2.621537e+001 1.520000e+002 6.735096e+001
      vertex   2.623445e+001 1.520000e+002 6.720817e+001
    endloop
  endfacet
  facet normal -9.880406e-001 -2.823932e-004 -1.454231e-001
    outer loop
      vertex   2.622006e+001 1.500000e+002 6.730981e+001
      vertex   2.623445e+001 1.520000e+002 6.720817e+001
      vertex   2.623915e+001 1.500000e+002 6.718007e+001
    endloop
  endfacet
  facet normal -6.918497e-002 2.264827e-005 -1.320234e-002
    outer loop
      vertex   2.623915e+001 1.500000e+002 6.718007e+001
      vertex   2.623445e+001 1.520000e+002 6.720817e+001
      vertex   2.626090e+001 1.520000e+002 6.706956e+001
    endloop
  endfacet
  facet normal -9.790000e-001 -1.842272e-004 -1.959541e-001
    outer loop
      vertex   2.623915e+001 1.500000e+002 6.718007e+001
      vertex   2.626090e+001 1.520000e+002 6.706956e+001
      vertex   2.626438e+001 1.500000e+002 6.705405e+001
    endloop
  endfacet
  facet normal -6.640792e-002 1.433935e-005 -1.675238e-002
    outer loop
      vertex   2.626438e+001 1.500000e+002 6.705405e+001
      vertex   2.626090e+001 1.520000e+002 6.706956e+001
      vertex   2.629446e+001 1.520000e+002 6.693650e+001
    endloop
  endfacet
  facet normal -1.370219e-001 1.265083e-004 -9.905622e-001
    outer loop
      vertex   2.692159e+001 1.520000e+002 6.615082e+001
      vertex   2.696075e+001 1.520000e+002 6.614540e+001
      vertex   2.692829e+001 1.500000e+002 6.614964e+001
    endloop
  endfacet
  facet normal -1.000000e+000 -0.000000e+000 -0.000000e+000
    outer loop
      vertex   2.700000e+001 1.520000e+002 7.300000e+001
      vertex   2.700000e+001 1.520000e+002 6.914359e+001
      vertex   2.700000e+001 1.480000e+002 7.300000e+001
    endloop
  endfacet
  facet normal -7.199104e-001 0.000000e+000 0.000000e+000
    outer loop
      vertex   2.700000e+001 1.480000e+002 7.300000e+001
      vertex   2.700000e+001 1.520000e+002 6.914359e+001
      vertex   2.700000e+001 1.480000e+002 6.914359e+001
    endloop
  endfacet
  facet normal 1.000000e+000 0.000000e+000 -0.000000e+000
    outer loop
      vertex   2.900000e+001 1.520000e+002 6.914359e+001
      vertex   2.900000e+001 1.520000e+002 7.300000e+001
      vertex   2.900000e+001 1.480000e+002 6.914359e+001
    endloop
  endfacet
  facet normal 7.199104e-001 0.000000e+000 0.000000e+000
    outer loop
      vertex   2.900000e+001 1.480000e+002 6.914359e+001
      vertex   2.900000e+001 1.520000e+002 7.300000e+001
      vertex   2.900000e+001 1.480000e+002 7.300000e+001
    endloop
  endfacet
  facet normal -0.000000e+000 0.000000e+000 1.000000e+000
    outer loop
      vertex   2.700000e+001 1.520000e+002 7.300000e+001
      vertex   2.700000e+001 1.480000e+002 7.300000e+001
      vertex   2.900000e+001 1.520000e+002 7.300000e+001
    endloop
  endfacet
  facet normal 0.000000e+000 0.000000e+000 4.472136e-001
    outer loop
      vertex   2.900000e+001 1.520000e+002 7.300000e+001
      vertex   2.700000e+001 1.480000e+002 7.300000e+001
      vertex   2.900000e+001 1.480000e+002 7.300000e+001
    endloop
  endfacet
endsolid
